<svg version="1.1" xmlns="http://www.w3.org/2000/svg" xmlns:xlink="http://www.w3.org/1999/xlink" x="0px" y="0px" viewBox="0 0 1500 726.8" style="width:100%;padding:0" xml:space="preserve">
  <style type="text/css">
    .st0{fill:#FFFFFF;}
    .st1{fill:#EBF8FA;}
    .st2{fill:#EFF5ED;}
    .st3{fill:#232F3E;}
    .st4{fill:none;}
    .st5{fill:#252F3E;}
    .st6{font-family:"Amazon Ember","Helvetica Neue","Roboto","Arial","sans-serif";}
    .st7{font-size:30px;}
    .st8{fill:#373E3E;}
    .st9{fill:#879196;}
    .st10{font-size:22px;}
    .st11{fill:none;stroke:#D5DBDB;stroke-width:1.5464;stroke-miterlimit:10;}
    .st12{fill:none;stroke:#007DBC;stroke-width:3.0928;stroke-miterlimit:10;}
    .st13{fill:#007DBC;}
    .st14{fill:none;stroke:#252F3E;stroke-width:3.0928;stroke-miterlimit:10;}
    .st15{font-family:"Amazon Ember","Helvetica Neue","Roboto","Arial","sans-serif";font-style: italic}
    .st16{font-size:19px;}
    .st17{fill:none;stroke:#252F3E;stroke-width:2.448;stroke-miterlimit:10;}
  </style>
  <g id="Background">
    <g>
      <path class="st0" d="M0,0.7h1500v726.1H0V0.7z"/>
    </g>
    <g>
      <path class="st1" d="M300.3,726.3H0V0h300.3V726.3z"/>
    </g>
    <g>
      <path class="st2" d="M1500,726.4h-283V0.5h283V726.4z"/>
    </g>
    <g>
      <rect x="39.1" y="461.1" class="st3" width="1421.5" height="6"/>
      <g>
        <rect x="65.9" y="497.6" class="st4" width="208.7" height="29.6"/>
        <text transform="matrix(1 0 0 1 50 519.8122)" class="st5 st6 st7">Amazon S3</text>
      </g>
      <g>
        <rect x="325.4" y="497.6" class="st4" width="398.8" height="31.3"/>
        <text transform="matrix(1 0 0 1 325.3687 519.8122)" class="st5 st6 st7">AWS Elemental MediaConvert</text>
        <rect x="325.4" y="497.6" class="st4" width="398.8" height="31.3"/>
        <text transform="matrix(1 0 0 1 325.3687 519.8122)" class="st8 st6 st7">AWS Elemental MediaConvert</text>
      </g>
      <g>
        <rect x="325.4" y="540.8" class="st4" width="383.9" height="143.4"/>
        <text transform="matrix(1 0 0 1 325.3672 565)"><tspan x="0" y="0" class="st9 st6 st10">Convert input video into multiple output </tspan><tspan x="0" y="24.7" class="st9 st6 st10">formats, to support viewing on a broad </tspan><tspan x="0" y="49.5" class="st9 st6 st10">array of devices at varying resolutions</tspan></text>
      </g>
      <g>
        <rect x="774.4" y="540.8" class="st4" width="383.9" height="143.4"/>
        <text transform="matrix(1 0 0 1 774.3672 565)" class="st9 st6 st10">Store processed content for distribution</text>
      </g>
      <g>
        <rect x="1242.4" y="540.8" class="st4" width="383.9" height="143.4"/>
        <text transform="matrix(1 0 0 1 1242.3672 565)" class="st9 st6 st10">View content</text>
      </g>
      <g>
        <rect x="66.4" y="540.8" class="st4" width="209.6" height="143.4"/>
        <text transform="matrix(1 0 0 1 50 565)" class="st9 st6 st10">Receive source content</text>
      </g>
      <g>
        <rect x="1242.3" y="497.6" class="st4" width="222.6" height="29.6"/>
        <text transform="matrix(1 0 0 1 1242.2803 519.8122)" class="st5 st6 st7">Display Devices</text>
      </g>
      <g>
        <rect x="776.3" y="497.6" class="st4" width="222.6" height="29.6"/>
        <text transform="matrix(1 0 0 1 776.3018 519.8122)" class="st5 st6 st7">Amazon S3</text>
      </g>
      <line class="st11" x1="1217.5" y1="492.6" x2="1217.5" y2="671"/>
      <line class="st11" x1="299" y1="492.6" x2="299" y2="671"/>
      <line class="st11" x1="750" y1="492.6" x2="750" y2="671"/>
    </g>
    <g>
      <g>
        <line class="st12" x1="260.8" y1="238.4" x2="411.9" y2="238.4"/>
        <g>
          <polygon class="st13" points="405.8,243.6 411,238.4 405.8,233.1 410.2,233.1 415.5,238.4 410.2,243.6"/>
        </g>
      </g>
    </g>
    <g>
      <g>
        <path class="st12" d="M331.6,238.6c19.8,0,14.3-59.3,67.9-59.3h12.4"/>
        <g>
          <polygon class="st13" points="405.8,184.5 411,179.2 405.8,174 410.2,174 415.5,179.2 410.2,184.5"/>
        </g>
      </g>
    </g>
    <g>
      <g>
        <path class="st12" d="M331.6,238.6c19.8,0,14.3,59.2,67.9,59.2h12.4"/>
        <g>
          <polygon class="st13" points="405.8,303 411,297.8 405.8,292.5 410.2,292.5 415.5,297.8 410.2,303"/>
        </g>
      </g>
    </g>
    <g>
      <rect x="441.6" y="213.3" class="st14" width="270.4" height="48.5"/>
      <g>
        <text transform="matrix(1 0 0 1 460 243)" class="st5 st15 st16">Output Group 2 (DASH ISO)</text>
      </g>
    </g>
    <g>
      <rect x="441.6" y="154.8" class="st14" width="270.4" height="48.5"/>
      <g>
        <text transform="matrix(1 0 0 1 460 184)" class="st5 st15 st16">Output Group 1 (Apple HLS)</text>
      </g>
    </g>
    <g>
      <rect x="441.6" y="272.7" class="st14" width="270.4" height="48.5"/>
      <g>
        <text transform="matrix(1 0 0 1 460 303)" class="st5 st15 st16">Output Group 3 (File Group)</text>
      </g>
    </g>
    <g>
      <rect x="846" y="213.3" class="st14" width="215.5" height="48.5"/>
      <g>
        <text transform="matrix(1 0 0 1 920 243)" class="st5 st15 st16">Movie.MPD</text>
      </g>
    </g>
    <g>
      <rect x="846" y="154.8" class="st14" width="215.5" height="48.5"/>
      <g>
        <text transform="matrix(1 0 0 1 920 186)" class="st5 st15 st16">Movie.M3U8</text>
      </g>
    </g>
    <g>
      <rect x="846" y="272.7" class="st14" width="215.5" height="48.5"/>
      <g>
        <text transform="matrix(1 0 0 1 920 303)" class="st5 st15 st16">Movie.MOV</text>
      </g>
    </g>
    <g>
      <g>
        <line class="st12" x1="751.6" y1="178.1" x2="797.7" y2="178.1"/>
        <g>
          <polygon class="st13" points="791.5,183.3 796.8,178.1 791.5,172.8 796,172.8 801.2,178.1 796,183.3"/>
        </g>
      </g>
    </g>
    <g>
      <g>
        <line class="st12" x1="751.6" y1="237.9" x2="797.7" y2="237.9"/>
        <g>
          <polygon class="st13" points="791.5,243.1 796.8,237.9 791.5,232.6 796,232.6 801.2,237.9 796,243.1"/>
        </g>
      </g>
    </g>
    <g>
      <g>
        <line class="st12" x1="751.6" y1="297.7" x2="797.7" y2="297.7"/>
        <g>
          <polygon class="st13" points="791.5,302.9 796.8,297.7 791.5,292.5 796,292.5 801.2,297.7 796,302.9"/>
        </g>
      </g>
    </g>
    <g>
      <g>
        <g>
          <line class="st12" x1="1197.3" y1="238.7" x2="1257.1" y2="238.7"/>
          <g>
            <polygon class="st13" points="1250.9,243.9 1256.2,238.7 1250.9,233.4 1255.4,233.4 1260.6,238.7 1255.4,243.9"/>
          </g>
        </g>
      </g>
      <path class="st12" d="M1201.8,238.8c-18.1,0-13.1-54.1-62-54.1h-37.7"/>
      <path class="st12" d="M1102.1,239.2c0,0,100.9-0.4,99.7-0.4c-18.1,0-13.1,54-62,54h-37.7"/>
    </g>
    <g>
      <g>
        <path class="st17" d="M1445.5,293.1c0,3-2.5,4.2-5.5,4.2h-21.3c-3,0-5.5-1.2-5.5-4.2V239c0-3,2.5-5.5,5.5-5.5h21.3
          c3,0,5.5,2.5,5.5,5.5V293.1z"/>
        <rect x="1413.2" y="243.1" class="st17" width="32.3" height="46.7"/>
        <line class="st17" x1="1434.4" y1="238.3" x2="1424.9" y2="238.3"/>
        <circle class="st5" cx="1419.3" cy="238.3" r="1"/>
        <circle class="st5" cx="1422.5" cy="238.3" r="1"/>
      </g>
      <g>
        <path class="st17" d="M1377.3,290.3l0-66c0-1.1-1.1-2.1-2.4-2.1h-88.3c-1.3,0-2.5,0.9-2.5,2.1v66H1377.3z"/>
        <rect x="1289.9" y="228.2" class="st17" width="81.8" height="55.2"/>
        <path class="st17" d="M1274.2,290.3v5.6l0.4,0.3c1.8,1.4,4,2.1,6.3,2.1h99.7c1.9,0,3.7-0.6,5.2-1.8l0.7-0.6v-5.6H1274.2z"/>
        <path class="st17" d="M1288.6,287.6"/>
        <path class="st17" d="M1283.4,280.7"/>
      </g>
      <g>
        <path class="st17" d="M1360.9,221.8v-38.3c0-1.8,1.5-3.3,3.3-3.3h63.4c1.8,0,3.3,1.5,3.3,3.3v49.9"/>
        <line class="st17" x1="1413.2" y1="271" x2="1377.3" y2="271"/>
        <polyline class="st17" points="1366.6,222.2 1366.6,186 1425.2,186 1425.2,233.5"/>
        <line class="st17" x1="1413.2" y1="254.5" x2="1377.7" y2="254.5"/>
        <circle class="st17" cx="1396.2" cy="262.2" r="3.8"/>
      </g>
    </g>
    <g>
      <g>
        <g>
          <polygon class="st14" points="163.9,237.3 141.2,247.2 141.2,227.5"/>
        </g>
        <g>
          <rect x="124.5" y="219.3" class="st14" width="52.3" height="36.3"/>
          <rect x="124.5" y="262.6" class="st14" width="52.3" height="36.3"/>
          <rect x="124.5" y="176" class="st14" width="52.3" height="36.3"/>
          <polygon class="st14" points="176.8,166.8 176.8,170.8 124.5,170.8 124.5,166.8 112,166.8 112,176.6 112,309.1 124.5,309.1
            124.5,305 176.8,305 176.8,309.1 189.2,309.1 189.2,176.6 189.2,166.8"/>
          <line class="st14" x1="118" y1="173.4" x2="118" y2="179.8"/>
          <line class="st14" x1="118" y1="185.6" x2="118" y2="192"/>
          <line class="st14" x1="118" y1="197.8" x2="118" y2="204.2"/>
          <line class="st14" x1="118" y1="210" x2="118" y2="216.4"/>
          <line class="st14" x1="118" y1="222.2" x2="118" y2="228.6"/>
          <line class="st14" x1="118" y1="234.4" x2="118" y2="240.8"/>
          <line class="st14" x1="118" y1="246.6" x2="118" y2="253"/>
          <line class="st14" x1="118" y1="258.8" x2="118" y2="265.2"/>
          <line class="st14" x1="118" y1="272.2" x2="118" y2="278.6"/>
          <line class="st14" x1="118" y1="284.4" x2="118" y2="290.8"/>
          <line class="st14" x1="118" y1="296.6" x2="118" y2="303"/>
          <line class="st14" x1="183.4" y1="173.4" x2="183.4" y2="179.8"/>
          <line class="st14" x1="183.4" y1="185.6" x2="183.4" y2="192"/>
          <line class="st14" x1="183.4" y1="197.8" x2="183.4" y2="204.2"/>
          <line class="st14" x1="183.4" y1="210" x2="183.4" y2="216.4"/>
          <line class="st14" x1="183.4" y1="222.2" x2="183.4" y2="228.6"/>
          <line class="st14" x1="183.4" y1="234.4" x2="183.4" y2="240.8"/>
          <line class="st14" x1="183.4" y1="246.6" x2="183.4" y2="253"/>
          <line class="st14" x1="183.4" y1="258.8" x2="183.4" y2="265.2"/>
          <line class="st14" x1="183.4" y1="272.2" x2="183.4" y2="278.6"/>
          <line class="st14" x1="183.4" y1="284.4" x2="183.4" y2="290.8"/>
          <line class="st14" x1="183.4" y1="296.6" x2="183.4" y2="303"/>
        </g>
      </g>
    </g>
    <g>
      <polygon class="st14" points="887.1,297.1 864.4,307 864.4,287.3"/>
    </g>
    <g>
      <polygon class="st14" points="887.1,236.8 864.4,246.6 864.4,227"/>
    </g>
    <g>
      <polygon class="st14" points="887.1,180.4 864.4,190.2 864.4,170.5"/>
    </g>
  </g>
</svg>
